<?xml version="1.0" encoding="UTF-8" standalone="no"?>
<!-- Created with Inkscape (http://www.inkscape.org/) -->

<svg
   version="1.1"
   id="svg3358"
   width="800"
   height="800"
   viewBox="0 0 800 800"
   sodipodi:docname="fairy-silhouette-7-publicdomainvectors.org.svg"
   inkscape:version="1.2 (dc2aedaf03, 2022-05-15)"
   xmlns:inkscape="http://www.inkscape.org/namespaces/inkscape"
   xmlns:sodipodi="http://sodipodi.sourceforge.net/DTD/sodipodi-0.dtd"
   xmlns="http://www.w3.org/2000/svg"
   xmlns:svg="http://www.w3.org/2000/svg">
  <defs
     id="defs3362">
    <clipPath
       clipPathUnits="userSpaceOnUse"
       id="clipPath3374">
      <path
         d="M 0,600 H 600 V 0 H 0 Z"
         id="path3372" />
    </clipPath>
  </defs>
  <sodipodi:namedview
     id="namedview3360"
     pagecolor="#ffffff"
     bordercolor="#000000"
     borderopacity="0.25"
     inkscape:showpageshadow="2"
     inkscape:pageopacity="0.0"
     inkscape:pagecheckerboard="0"
     inkscape:deskcolor="#d1d1d1"
     showgrid="false"
     inkscape:zoom="1.04625"
     inkscape:cx="400"
     inkscape:cy="400.4779"
     inkscape:window-width="1920"
     inkscape:window-height="1017"
     inkscape:window-x="-8"
     inkscape:window-y="-8"
     inkscape:window-maximized="1"
     inkscape:current-layer="g3366">
    <inkscape:page
       x="0"
       y="0"
       id="page3364"
       width="800"
       height="800" />
  </sodipodi:namedview>
  <g
     id="g3366"
     inkscape:groupmode="layer"
     inkscape:label="Page 1"
     transform="matrix(1.3333333,0,0,-1.3333333,0,800)">
    <g
       id="g3368">
      <g
         id="g3370"
         clip-path="url(#clipPath3374)">
        <g
           id="g3376"
           transform="translate(418.3037,50.3545)">
          <path
             d="m 0,0 c 2.438,-1.088 5.333,-2.403 8.844,-4.03 8.712,-4.084 16.407,-7.406 23.229,-9.128 l 14.469,-0.697 c 5.459,1.282 10.173,4.762 14.272,11.25 L 34.13,2.318 Z"
             style="fill:#0a5445;fill-opacity:1;fill-rule:nonzero;stroke:none"
             id="path3378" />
        </g>
        <g
           id="g3380"
           transform="translate(464.8457,36.499)">
          <path
             d="M 0,0 -14.469,0.697 C -9.132,-0.65 -4.331,-1.017 0,0"
             style="fill:#24604e;fill-opacity:1;fill-rule:nonzero;stroke:none"
             id="path3382" />
        </g>
        <g
           id="g3384"
           transform="translate(524.7334,454.0049)">
          <path
             d="M 0,0 C 1.376,2.384 3.077,4.621 4.71,6.825 1.404,0.851 2.438,-0.648 1.555,-3.435 1.363,-4.07 0.969,-5.209 0.5,-6.457 l 7.054,-10.064 c 0.805,3.93 1.382,7.317 2.169,9.702 0.604,2.171 1.869,4.123 2.383,6.339 0.542,2.226 1.56,8.659 -0.268,10.002 -1.186,0.838 -2.903,1.214 -4.28,0.582 3.048,2.259 9.342,3.541 14.024,11.775 1.416,2.283 1.27,4.375 -1.286,5.953 -0.694,-0.476 -1.337,-1.013 -1.952,-1.617 -0.365,0.8 -1.075,1.254 -1.69,1.946 -1.493,-0.705 -7.457,-5.918 -9.308,-6.802 -7.525,-3.658 -7.055,-3.49 -8.912,-5.135 -6.634,-4.539 -8.19,-3.656 -9.3,-6.469 L -0.451,-5.1 C -0.184,-2.826 -0.579,-2.206 0,0"
             style="fill:#b93f00;fill-opacity:1;fill-rule:nonzero;stroke:none"
             id="path3386" />
        </g>
        <g
           id="g3388"
           transform="translate(513.8799,402.8403)">
          <path
             d="m 0,0 c 3.782,3.642 5.93,3.552 8.75,10.114 5.882,8.106 8.165,17.25 9.657,24.53 l -7.053,10.064 c -0.886,-2.358 -2.037,-5.109 -2.593,-5.61 0.163,0.61 0.336,1.226 0.51,1.819 0.69,2.421 0.996,3.996 1.131,5.147 L -0.013,60.92 C -0.391,59.964 -0.718,58.582 -1.175,56.413 -2.327,55.629 -2.953,54.409 -3.552,53.223 -7.199,46.086 -8.29,49.14 -5.337,42.063 -5.784,38.769 -8.805,23.44 -10.758,18.998 -13.515,12.101 -16.782,9.701 -25.644,0.442 c -0.985,-1.03 -1.932,-2.01 -2.846,-2.946 L -6.887,-6.953 C -4.607,-4.525 -2.308,-2.196 0,0"
             style="fill:#be6e00;fill-opacity:1;fill-rule:nonzero;stroke:none"
             id="path3390" />
        </g>
        <g
           id="g3392"
           transform="translate(479.4199,231.6387)">
          <path
             d="M 0,0 C 1.163,0.062 2.193,-0.709 3.362,-0.793 5.136,-1 6.69,0.196 8.42,0.163 c 1.376,-0.04 2.891,-0.358 4.15,0.464 1.813,1.181 3.463,2.994 5.729,3.172 2.025,0.191 3.346,2.305 4.099,4.19 1.254,3.127 0.785,0.872 4.527,6.909 2.646,4.257 3.244,4.526 3.709,6.003 0.19,0.808 0.158,1.658 -0.063,2.482 L -3.863,-0.328 C -2.568,-0.363 -1.294,0.092 0,0"
             style="fill:#708454;fill-opacity:1;fill-rule:nonzero;stroke:none"
             id="path3394" />
        </g>
        <g
           id="g3396"
           transform="translate(454.9971,154.3555)">
          <path
             d="M 0,0 36.22,-13.943 C 31.069,-6.894 24.362,1.83 17.118,10.339 Z"
             style="fill:#2a6850;fill-opacity:1;fill-rule:nonzero;stroke:none"
             id="path3398" />
        </g>
        <g
           id="g3400"
           transform="translate(460.1592,190.6396)">
          <path
             d="M 0,0 C -0.288,0.545 -0.436,0.854 -1.334,1.53 L -1.398,0.888 C -0.946,0.614 -0.482,0.32 0,0"
             style="fill:#4a8a5c;fill-opacity:1;fill-rule:nonzero;stroke:none"
             id="path3402" />
        </g>
        <g
           id="g3404"
           transform="translate(472.1152,164.6943)">
          <path
             d="m 0,0 c -4.693,5.514 -9.611,10.935 -14.476,15.752 l -2.642,-26.091 z"
             style="fill:#4a8a5c;fill-opacity:1;fill-rule:nonzero;stroke:none"
             id="path3406" />
        </g>
        <g
           id="g3408"
           transform="translate(465.7813,241.0986)">
          <path
             d="M 0,0 C 0.716,-1.616 1.868,-2.976 2.975,-4.296 4.878,-6.562 6.322,-9.118 9.359,-9.761 9.498,-9.777 9.637,-9.784 9.775,-9.788 L 44.21,13.923 c -0.351,1.309 -1.181,2.549 -2.376,3.442 -2.842,2.11 -3.212,1.394 -6.49,1.074 -4.369,-0.425 -8.296,-1.342 -12.99,-4.576 -5.112,6.921 -2.013,10.83 -14.589,16.224 -2.452,1.049 -3.252,1.42 -5.297,5.655 L -1.658,0.384 C -1.135,0.264 -0.585,0.138 0,0"
             style="fill:#98ae4c;fill-opacity:1;fill-rule:nonzero;stroke:none"
             id="path3410" />
        </g>
        <g
           id="g3412"
           transform="translate(479.1172,47.749)">
          <path
             d="m 0,0 c 1.492,2.363 2.905,5.12 4.241,8.32 6.333,-3.832 13.226,-6.965 20.408,-5.017 8.403,2.282 17.767,11.513 18.808,31.886 0.016,0.302 0.029,0.592 0.043,0.874 L -26.684,4.924 Z"
             style="fill:#0a483c;fill-opacity:1;fill-rule:nonzero;stroke:none"
             id="path3414" />
        </g>
        <g
           id="g3416"
           transform="translate(452.4336,52.6729)">
          <path
             d="m 0,0 70.184,31.14 c 0.364,7.94 -0.402,8.597 -3.401,15.534 -2.404,5.566 -4.139,9.28 -8.793,12.447 -3.038,2.07 -0.621,0.805 -10.708,16.425 -1.684,2.61 -4.66,6.937 -8.499,12.193 L 2.564,101.683 Z"
             style="fill:#0a634b;fill-opacity:1;fill-rule:nonzero;stroke:none"
             id="path3418" />
        </g>
        <g
           id="g3420"
           transform="translate(506.9932,395.8877)">
          <path
             d="M 0,0 -21.604,4.448 C -32.136,-6.339 -38.12,-11.108 -45.598,-16.255 l 8.001,-31.089 C -26.738,-32.726 -13.693,-14.574 0,0"
             style="fill:#bca01c;fill-opacity:1;fill-rule:nonzero;stroke:none"
             id="path3422" />
        </g>
        <g
           id="g3424"
           transform="translate(397.8574,59.2529)">
          <path
             d="m 0,0 c 0.301,-0.145 0.6,-0.292 0.904,-0.436 6.806,-3.297 8.195,-3.4 19.542,-8.462 l 34.13,2.318 z"
             style="fill:#196d51;fill-opacity:1;fill-rule:nonzero;stroke:none"
             id="path3426" />
        </g>
        <g
           id="g3428"
           transform="translate(441.6074,252.3682)">
          <path
             d="m 0,0 c 2.305,4.896 4.345,9.085 4.952,10.118 8.807,-19.332 5.746,-18.297 17.564,-21.004 l 4.126,35.359 c -0.876,1.816 -1.982,4.342 -3.542,7.938 -2.428,5.616 -2.372,5.001 -2.199,6.422 1.494,12.341 -7.647,21.918 -8.195,23.172 -0.912,2.09 -1.495,2.852 -2.055,3.862 L -30.189,45.54 Z"
             style="fill:#a7cb55;fill-opacity:1;fill-rule:nonzero;stroke:none"
             id="path3430" />
        </g>
        <g
           id="g3432"
           transform="translate(410.3926,445.0942)">
          <path
             d="M 0,0 C -0.114,0.696 0.074,1.273 0.532,3.731 1.298,7.826 3.2,18.332 5.265,21.979 5.93,20.139 7.978,18.975 9.935,19.344 10.791,13.727 8.441,8.362 8.324,2.511 c 1.997,1.55 2.758,13.135 2.635,17.012 2.495,0.811 3.91,3.955 2.618,6.283 -0.13,0.261 -0.29,0.497 -0.47,0.713 l -33.444,-8.792 z"
             style="fill:#cd6f00;fill-opacity:1;fill-rule:nonzero;stroke:none"
             id="path3434" />
        </g>
        <g
           id="g3436"
           transform="translate(419.6426,437.0312)">
          <path
             d="m 0,0 0.168,-0.146 0.104,0.125 C 0.179,-0.011 0.091,-0.007 0,0"
             style="fill:#cd6f00;fill-opacity:1;fill-rule:nonzero;stroke:none"
             id="path3438" />
        </g>
        <g
           id="g3440"
           transform="translate(423.1426,436.5513)">
          <path
             d="m 0,0 c 0.492,-0.503 0.536,-1.656 -0.353,-1.796 -0.129,-0.041 -0.257,-0.085 -0.386,-0.13 l 1.183,-1.032 c 0.091,0.054 0.168,0.102 0.226,0.144 1.063,1.035 0.191,2.724 -0.895,3.485 -0.005,0.213 0,0.414 0.017,0.598 -0.408,0.84 -0.732,0.89 -1.124,0.969 C -1.12,1.93 -0.957,1.689 -0.879,1.566 L -0.93,1.443 c -0.894,0.056 -1.712,0.442 -2.64,0.571 0.409,0.235 0.717,0.453 1.057,0.71 -0.039,0.162 -0.066,0.285 -0.111,0.459 L -2.545,3.2 -2.647,3.278 -2.663,3.323 -2.697,3.311 c -0.09,0.057 -0.185,0.124 -0.269,0.18 -0.448,0.827 -1.14,1.455 -1.925,1.98 L -5.069,5.437 C -6.214,5.79 -8.199,5.753 -9.457,5.672 L -4.21,1.099 C -2.563,1.095 -0.479,0.778 0,0"
             style="fill:#cd6f00;fill-opacity:1;fill-rule:nonzero;stroke:none"
             id="path3442" />
        </g>
        <g
           id="g3444"
           transform="translate(406.582,499.5205)">
          <path
             d="M 0,0 C 0.265,0.263 4.115,2.694 2.156,6.483 L -2.201,-3.589 C -0.824,-2.98 0.097,-1.529 0,0"
             style="fill:#cb4500;fill-opacity:1;fill-rule:nonzero;stroke:none"
             id="path3446" />
        </g>
        <g
           id="g3448"
           transform="translate(423.5,471.6128)">
          <path
             d="m 0,0 c -1.882,2.251 -6.19,1.992 -7.519,-0.73 -1.398,3.1 -1.98,12.05 -2.037,15.194 0.376,0.688 0.353,0.174 0.281,4.224 -0.178,10.768 1.21,22.045 2.241,33.563 L -9.231,47.172 C -13.303,26.362 -20.758,11.181 -21.057,9.822 -21.337,8.747 -21.75,7.567 -22.443,6.7 c -0.617,1.084 -1.031,2.304 -1.786,3.317 L -24.346,9.95 c 0.565,-1.236 1.342,-2.395 1.795,-3.659 -0.263,-0.939 -0.732,-1.768 -1.151,-2.719 -0.823,1.063 -1.081,2.405 -1.617,3.625 0.248,0.814 0.182,1.681 -0.15,2.445 l -7.975,-18.434 z"
             style="fill:#cb4500;fill-opacity:1;fill-rule:nonzero;stroke:none"
             id="path3450" />
        </g>
        <g
           id="g3452"
           transform="translate(384.6445,149.5137)">
          <path
             d="m 0,0 -10.87,-75.598 c 7.18,-4.575 14.481,-10.013 24.083,-14.663 l 54.576,-6.58 z"
             style="fill:#207e56;fill-opacity:1;fill-rule:nonzero;stroke:none"
             id="path3454" />
        </g>
        <g
           id="g3456"
           transform="translate(452.4336,52.6729)">
          <path
             d="M 0,0 2.564,101.683 -67.789,96.841 Z"
             style="fill:#238959;fill-opacity:1;fill-rule:nonzero;stroke:none"
             id="path3458" />
        </g>
        <g
           id="g3460"
           transform="translate(452.2588,318.2354)">
          <path
             d="M 0,0 C -0.647,1.166 -1.263,2.661 -2.315,6.912 2.657,11.12 9.333,19.802 17.138,30.309 L 9.137,61.397 c -5.424,-3.733 -11.633,-7.666 -20.934,-14.24 -0.454,0.855 -0.931,1.646 -1.424,2.386 l -27.62,-69.87 z"
             style="fill:#c1c32f;fill-opacity:1;fill-rule:nonzero;stroke:none"
             id="path3462" />
        </g>
        <g
           id="g3464"
           transform="translate(398.0313,481.2544)">
          <path
             d="m 0,0 c -0.184,0.424 -0.448,0.816 -0.791,1.147 1.847,4.448 4.012,8.806 5.885,13.23 0.447,0.02 0.869,0.128 1.256,0.3 l 4.357,10.072 c -0.121,0.236 -0.264,0.476 -0.433,0.722 0.315,0.839 1.707,2.764 -0.951,4.979 0.661,4.207 2.842,26.797 -0.66,28.474 C 5.916,56.312 10.342,49.157 7.641,30.925 5.491,31.02 3.752,28.95 4.11,26.847 2.481,25.93 1.458,24.251 1.503,22.562 1.402,21.544 1.939,20.654 2.319,19.781 1.056,18.254 1.615,15.882 3.227,14.87 1.396,10.68 -0.623,6.557 -2.357,2.328 -2.961,3.139 -3.151,4.179 -3.616,5.085 L -3.744,5.03 c 0.38,-1.119 0.75,-2.127 1.28,-3.077 -0.654,-0.039 -1.352,0.027 -2.002,-0.218 -2.052,4.292 -4.627,6.948 -6.285,8.303 l 2.775,-28.471 z"
             style="fill:#d03e00;fill-opacity:1;fill-rule:nonzero;stroke:none"
             id="path3466" />
        </g>
        <g
           id="g3468"
           transform="translate(417.3408,550.5894)">
          <path
             d="M 0,0 C -0.42,6.881 -0.878,14.182 -2.77,15.188 -5.197,12.649 -5.153,0.207 -5.04,-3.306 c 0.129,-2.573 0.234,-10.08 2.338,-11.412 2.434,2.926 1.689,19.054 -0.023,19.983 -0.52,-1.824 -0.621,-3.714 -0.379,-5.556 0.06,-0.889 1.001,-1.365 1.017,-2.22 0.207,-1.661 0.582,-8.313 -0.884,-9.024 -1.175,1.718 -1.32,5.802 -1.41,8.173 l -0.022,0.005 c -0.106,2.988 -0.179,13.623 1.645,15.872 1.052,-1.147 1.03,-2.893 1.342,-4.348 1.911,-14.149 0.688,-27.992 -1.656,-39.972 l 2.197,5.079 C -0.087,-17.917 0.492,-8.968 0,0"
             style="fill:#d03e00;fill-opacity:1;fill-rule:nonzero;stroke:none"
             id="path3470" />
        </g>
        <g
           id="g3472"
           transform="translate(407.0693,391.668)">
          <path
             d="m 0,0 c 0.006,-0.877 -0.33,-5.79 -0.347,-5.946 0.006,0.346 -0.016,0.643 -0.039,0.984 -1.017,-0.391 -0.615,-1.499 -1.062,-2.282 0.129,-0.151 0.223,-0.257 0.43,-0.476 l -0.715,-0.134 0.262,-0.637 c -0.604,0.021 -0.918,0.833 -1.404,1.224 0.219,1.265 1.28,6.691 1.718,7.531 C -0.754,0.185 -0.363,0.091 0,0 m -0.934,-9.169 c -0.565,0.135 0.005,0.93 -0.022,1.388 0.117,-0.123 -0.022,0.01 0.134,-0.146 -0.089,-0.402 -0.146,-0.816 -0.112,-1.242 M 4.985,7.525 C 6.283,7.145 7.592,6.663 8.878,6.104 8.711,6.037 8.51,5.941 8.398,5.892 6.261,6.009 4.084,6.07 2.221,7.077 3.161,7.256 4.112,7.14 4.985,7.525 M 4.706,9.035 C 6.025,8.61 6.875,8.979 8.162,8.555 9.024,8.268 9.919,7.972 10.836,7.782 c 0,0 0.375,-0.364 0.672,-0.648 C 7.983,8.229 8.57,8.739 7.005,8.28 6.137,8.028 6.069,8.028 4.437,8.649 4.525,8.778 4.65,8.957 4.706,9.035 m 6.152,0.867 C 10.276,9.533 9.617,9.293 9.035,9.08 7.704,9.349 6.305,9.103 5.041,9.6 c 3.686,0.627 5.739,1.136 5.817,0.302 m 1.958,-1.001 c 4.286,-2.428 3.951,-1.902 5.472,-3.077 0,-0.19 0.005,-0.391 0.011,-0.593 -2.371,1.309 -5.483,1.544 -7.066,3.256 0.47,0.229 0.979,0.324 1.583,0.414 m 4.576,1.505 c 0.752,-0.017 1.556,0 2.295,0.307 4.665,-2.623 5.863,-6.461 7.35,-11.624 0.291,-0.985 0.291,-0.846 0.269,-1.523 -1.309,2.423 -0.856,4.449 -3.105,7.089 h 0.005 c -1.946,2.277 -1.868,2.568 -6.925,5.471 z m 3.861,3.754 c 0.828,-0.728 1.655,-1.556 2.792,-1.421 0.771,-0.996 1.739,-1.825 2.612,-2.685 -1.611,0.626 -2.966,1.823 -4.71,2.192 -0.918,0.168 -1.047,1.175 -0.694,1.914 M 7.257,4.594 C 8.011,5.007 8.912,4.801 9.739,4.678 13.795,3.57 14.198,4.073 15.619,2.882 10.495,2.669 12.587,3.559 7.257,4.594 m -2.908,-98.354 27.62,69.87 c -9.051,13.546 -24.457,8.623 -31.762,13.737 0.325,3.178 0.728,6.568 0.985,9.868 1.543,-0.358 2.847,-0.559 4.094,-0.631 v -0.006 c 0.739,-0.052 1.489,-0.145 2.16,-0.235 0.626,-0.32 1.298,-0.56 1.948,-0.795 3.009,-1.073 1.923,-0.95 4.419,-2.439 0.016,-0.128 0.021,-0.134 0.034,-0.246 1.175,-1.12 2.348,-1.851 3.552,-2.876 0.24,0.197 0.408,0.326 0.665,0.515 0.325,-0.498 0.604,-0.896 0.928,-1.343 l 0.342,0.65 c 0.24,-0.454 0.492,-0.917 0.812,-1.343 0.155,-1.332 4.284,-7.172 6.925,-7.396 -0.548,0.973 -1.186,1.555 -1.393,2.428 0.682,-0.503 1.101,-0.699 1.393,-0.851 -0.168,0.348 -0.253,0.526 -0.436,0.908 1.544,-0.806 2.248,-1.064 3.026,-1.316 -0.481,1.31 -1.314,1.868 -2.109,2.848 -0.923,1.416 -1.975,2.786 -2.752,4.308 -0.482,0.76 -0.498,1.42 -1.354,2.103 0.101,-0.873 0.157,-1.08 0.245,-1.769 -1.05,2.222 -0.732,4.024 -2.696,4.689 -0.414,0.459 -0.884,1.119 -1.622,1.002 -0.039,0.061 -0.045,0.066 -0.079,0.117 l 0.012,0.011 c -0.061,0.056 -0.039,0.028 -0.09,0.1 l -0.011,-0.01 c -0.318,0.279 -0.614,0.537 -0.945,0.81 1.27,0.118 2.423,-0.363 3.194,-0.805 0.107,-0.375 0.548,-0.436 0.839,-0.643 0.594,-0.252 0.968,-0.896 1.634,-1.085 1.119,-0.291 2.517,-2.982 3.514,-4.017 0.156,-0.622 2.584,-4.067 4.978,-6.115 -0.386,1.763 -1.343,2.551 -1.931,3.989 -2.265,3.916 -2.438,12.542 -7.388,18.942 0.648,-0.033 1.241,-0.368 1.811,-0.699 2.541,-1.471 3.872,-0.152 3.681,0.582 -0.95,1.728 -2.673,2.808 -3.848,4.364 0.581,0.34 1.007,0.638 1.409,1.124 -0.226,0.218 -0.528,0.582 -0.877,0.999 l -70.772,1.737 z"
             style="fill:#d2c622;fill-opacity:1;fill-rule:nonzero;stroke:none"
             id="path3474" />
        </g>
        <g
           id="g3476"
           transform="translate(437.6973,407.1025)">
          <path
             d="m 0,0 c 0.415,-0.246 0.723,-0.424 1.125,-0.648 0.034,0.201 0.077,0.44 0.112,0.636 L 0.001,0.019 C 0.001,0.012 0.001,0.007 0,0"
             style="fill:#d2c622;fill-opacity:1;fill-rule:nonzero;stroke:none"
             id="path3478" />
        </g>
        <g
           id="g3480"
           transform="translate(435.7402,405.9619)">
          <path
             d="m 0,0 c 0,-0.415 3.272,-6.025 3.692,-6.646 0.062,1.444 -0.414,2.182 -0.749,3.407 0.313,-0.168 0.463,-0.252 0.66,-0.352 l 0.201,0.301 0.509,-0.464 c 0.006,1.097 -0.397,1.628 -0.985,2.635 L 3.211,-1.108 C 2.772,-0.254 2.113,0.426 1.548,1.169 L -0.973,1.231 C -0.698,0.878 -0.38,0.473 0,0"
             style="fill:#d2c622;fill-opacity:1;fill-rule:nonzero;stroke:none"
             id="path3482" />
        </g>
        <g
           id="g3484"
           transform="translate(384.6445,149.5137)">
          <path
             d="M 0,0 70.353,4.842 4.558,67.504 Z"
             style="fill:#52ae66;fill-opacity:1;fill-rule:nonzero;stroke:none"
             id="path3486" />
        </g>
        <g
           id="g3488"
           transform="translate(454.9971,154.3555)">
          <path
             d="m 0,0 2.642,26.091 c -2.25,2.226 -4.489,4.325 -6.688,6.243 1.941,0.213 3.82,-0.424 5.684,0.583 -0.996,1.465 -6.44,3.657 -8.632,5.699 -0.398,0.37 -0.811,0.744 -1.287,1.03 0.346,-0.04 0.705,-0.068 1.074,-0.045 0.285,-0.073 5.762,-1.275 6.489,-1.259 -1.958,1.617 -5.874,1.69 -4.419,2.529 0.57,-0.318 3.791,-0.601 8.901,-3.699 l 0.064,0.642 c -0.132,0.1 -0.281,0.208 -0.451,0.327 0.034,0.134 0.078,0.325 0.112,0.459 -0.693,0.369 -1.263,0.75 -1.935,1.197 -2.663,1.796 -2.395,1.119 -3.727,2.909 -0.38,0.503 -0.413,0.571 -0.973,0.929 -1.275,0.817 0.057,0.279 -2.383,2.36 -0.022,0.157 -0.084,0.459 -0.118,0.627 -0.336,0.191 -0.754,0.425 -1.124,0.615 -0.033,0.022 -0.151,0.079 -0.19,0.101 l 0.012,-0.011 c -8.135,3.658 -10.305,7.199 -13.7,14.544 -0.624,1.35 -1.124,2.567 -1.516,3.699 l -43.63,-2.908 z"
             style="fill:#5aaa66;fill-opacity:1;fill-rule:nonzero;stroke:none"
             id="path3490" />
        </g>
        <g
           id="g3492"
           transform="translate(389.2021,217.0176)">
          <path
             d="m 0,0 43.63,2.908 c -1.836,5.301 -1.258,8.665 0.665,14.193 0.908,2.646 4.784,11.183 8.11,18.25 l -30.189,45.54 z"
             style="fill:#86c06a;fill-opacity:1;fill-rule:nonzero;stroke:none"
             id="path3494" />
        </g>
        <g
           id="g3496"
           transform="translate(411.7627,432.1484)">
          <path
             d="M 0,0 C 0.112,-0.006 0.46,-0.039 0.745,-0.061 0.622,-0.185 0.504,-0.308 0.403,-0.419 0.247,-0.263 0.073,-0.095 -0.111,0.084 -0.022,0.017 -0.056,0.04 0,0 m 19.177,-13.04 c 0.18,0.196 0.258,0.268 0.448,0.453 -7.055,7.479 -8.05,6.92 -9.577,8.24 1.085,0.034 2.137,-0.095 3.133,-0.391 3.166,-2.266 3.389,-2.014 7.104,-8.369 -0.258,0.067 -0.431,-0.118 -0.772,-0.28 1.008,-1.001 2.037,-1.907 2.484,-3.155 -2.551,0.929 -4.017,2.775 -5.868,4.783 1.146,-0.196 1.437,-0.235 1.974,-0.308 -1.107,0.996 -1.856,0.974 -3.524,1.421 0.157,0.425 0.202,0.582 0.258,0.783 -2.405,1.181 -1.757,2.418 -4.684,3.861 -0.351,0.212 -0.72,0.447 -1.09,0.693 -0.157,0.352 -0.307,0.705 -0.448,1.052 3.094,-0.94 8.61,-6.226 10.562,-8.783 m 0.068,-6.814 0.023,0.638 0.189,0.28 c 0.962,0.117 1.896,-0.258 2.596,-1.046 -0.929,-0.158 -1.835,0.475 -2.808,0.128 m 3.591,-0.962 c 1.074,-0.963 1.991,-2.103 3.144,-3.01 -0.005,-0.257 -0.011,-0.492 -0.022,-0.716 -0.839,1.141 -1.466,1.253 -2.864,2.607 -0.884,0.85 -1.114,0.94 -1.667,1.181 0.491,-0.649 0.491,-0.644 1.017,-1.315 -0.279,0.117 -3.591,1.516 -3.793,1.784 0.962,0.139 1.891,0.151 2.681,-0.419 0.514,0.105 0.967,0 1.504,-0.112 m -73.026,-2.343 70.773,-1.737 c -1.048,1.25 -2.526,2.974 -3.711,2.643 0.543,0.43 0.951,0.967 1.422,1.482 3.048,-1.841 2.872,-1.814 4.711,-4.184 l 2.52,-0.062 c -0.133,0.176 -0.265,0.355 -0.384,0.542 0,0 0.179,-0.017 0.817,-0.079 -0.011,-0.27 -0.011,-0.275 -0.023,-0.473 l 1.237,-0.031 c 0.041,0.223 0.073,0.393 0.073,0.393 l 0.212,-0.151 0.022,-0.101 0.051,0.051 0.095,-0.068 -0.028,0.14 c 0.52,0.571 0.151,1.393 0.213,2.082 -0.94,0.945 -2.155,2.187 -3.262,3.3 -0.134,1.281 -0.878,1.773 -2.383,4.907 -0.515,1.084 -1.052,2.209 -1.863,3.132 -0.431,1.656 -2.926,4.8 -4.135,6.087 1.399,-0.381 2.49,-1.455 3.71,-2.25 l 0.084,-0.324 c 3.899,-2.623 3.39,-4.173 5.22,-5.757 0.099,1.002 -0.42,1.466 -0.733,2.244 0.044,0 0.072,0 0.128,-0.006 0.185,-0.156 0.38,-0.325 0.62,-0.532 0.045,1.311 -1.974,3.453 -3.11,3.715 -1.196,0.845 -8.804,5.539 -10.517,5.511 -0.592,0.24 -1.241,0.184 -1.834,0.246 0.319,0.677 1.236,0.817 1.834,1.286 l -0.078,0.118 c -0.8,-0.335 -1.521,-0.76 -2.148,-1.253 -1.774,0.039 -0.788,-0.09 -3.033,0.257 0.485,1.077 4.314,2.763 5.514,3.475 L 10.641,2.477 C 8.204,1.617 6.088,0.045 3.967,-1.32 L 3.313,-0.923 3.233,-1.505 C 2.484,-1.169 2.003,-0.458 1.5,0.14 L 1.388,0.062 C 1.522,-0.229 1.656,-0.515 1.802,-0.8 L 1.545,-1.002 c -0.264,0.257 -0.46,0.571 -0.582,0.918 H 0.969 L 0.907,0.09 0.896,0.079 0.655,0.604 0.627,0.806 C 0.795,0.671 1.052,0.47 1.226,0.336 L 1.931,0.615 C 1.242,1.046 0.555,1.471 0.336,2.232 1.164,2.389 1.92,3.205 2.373,2.276 2.558,2.579 2.72,2.858 2.909,3.082 4.432,3.854 6.148,4.135 7.783,4.414 L 8.048,4.736 7.88,4.883 C 4.796,5.136 3.116,3.454 1.791,3.698 3.089,4.246 4.225,4.99 5.528,5.365 5.916,5.455 6.508,5.503 7.17,5.502 L 1.923,10.075 C 1.388,10.041 0.982,9.998 0.834,9.974 c -1.853,-0.273 -1.349,0.224 -1.913,1.936 -0.149,0.454 -0.244,0.755 -0.291,1.036 l -20.337,17.727 z"
             style="fill:#d89800;fill-opacity:1;fill-rule:nonzero;stroke:none"
             id="path3498" />
        </g>
        <g
           id="g3500"
           transform="translate(316.4883,293.6006)">
          <path
             d="m 0,0 c -3.942,-0.163 -6.197,-5.073 -3.802,-8.039 -1.032,-0.11 -2.246,-0.705 -2.939,-1.72 l 1.413,-3.879 z"
             style="fill:#e8e22a;fill-opacity:1;fill-rule:nonzero;stroke:none"
             id="path3502" />
        </g>
        <g
           id="g3504"
           transform="translate(316.8955,294.6436)">
          <path
             d="M 0,0 1.301,3.329 C 0.309,2.541 -0.171,1.305 0,0"
             style="fill:#e8e22a;fill-opacity:1;fill-rule:nonzero;stroke:none"
             id="path3506" />
        </g>
        <g
           id="g3508"
           transform="translate(346.4756,372.4639)">
          <path
             d="m 0,0 c -3.899,7.588 -7.96,15.449 -12.191,23.397 l -2.471,-1.189 C -11.43,16.015 -8.235,9.8 -4.935,3.686 c -2.781,2.493 -7.184,8.783 -13.036,16.93 L -67.785,-3.35 -37.76,-85.79 c 13.503,17.111 14.431,29.554 20.333,39.072 L 1.357,1.358 C 0.908,0.904 0.456,0.451 0,0"
             style="fill:#e8e22a;fill-opacity:1;fill-rule:nonzero;stroke:none"
             id="path3510" />
        </g>
        <g
           id="g3512"
           transform="translate(346.2598,401.3745)">
          <path
             d="m 0,0 c -0.195,-0.028 -0.391,-0.036 -0.588,-0.036 l -1.233,-0.593 c 0.943,0 1.857,-0.346 2.825,-0.356 C 1.95,-0.94 2.588,-1.645 3.441,-2.126 2.173,-2.9 1.121,-3.405 -2.02,-0.725 l -0.438,-0.211 c 0.599,-0.497 1.262,-0.999 2.011,-1.515 2.243,-1.521 3.225,-1.006 4.9,0.537 0.219,-0.52 0.465,-0.95 0.588,-1.443 C 2.96,-5.27 1.393,-4.7 0.568,-7.731 c 0.974,0.951 3.405,3.312 4.763,3.345 -2.509,-2.556 -3.585,-1.387 -3.728,-4.71 0.745,-0.52 1.496,-0.985 2.341,-1.354 0.101,-0.168 0.359,-0.593 0.448,-0.738 -0.045,-0.661 -0.029,-1.108 -0.023,-1.388 0.543,0.739 0.537,1.253 0.974,1.616 -0.652,-2.77 -0.399,-3.353 0.952,-4.509 l 1.617,4.14 c -0.005,0.104 -0.007,0.207 -0.007,0.309 0.029,-0.038 0.055,-0.075 0.083,-0.113 L 15.313,7.615 -0.203,0.149 C -0.149,0.11 -0.093,0.068 0,0"
             style="fill:#e8e22a;fill-opacity:1;fill-rule:nonzero;stroke:none"
             id="path3514" />
        </g>
        <g
           id="g3516"
           transform="translate(324.8311,119.6064)">
          <path
             d="m 0,0 30.552,-36.993 c 1.07,-0.354 2.203,-0.736 3.414,-1.156 5.382,-1.785 10.153,-4.469 14.977,-7.541 l 10.87,75.597 z"
             style="fill:#3f9d61;fill-opacity:1;fill-rule:nonzero;stroke:none"
             id="path3518" />
        </g>
        <g
           id="g3520"
           transform="translate(312.6807,278.7373)">
          <path
             d="M 0,0 C 1.163,0.151 2.14,0.949 2.669,1.977 L -1.521,1.226 Z"
             style="fill:#b4e068;fill-opacity:1;fill-rule:nonzero;stroke:none"
             id="path3522" />
        </g>
        <g
           id="g3524"
           transform="translate(411.418,297.9082)">
          <path
             d="m 0,0 -67.206,-12.028 c 0.748,-2.816 1.304,-4.813 1.522,-5.521 2.464,-8.705 5.769,-16.31 1.193,-29.244 l 42.275,-34.098 z"
             style="fill:#b4e068;fill-opacity:1;fill-rule:nonzero;stroke:none"
             id="path3526" />
        </g>
        <g
           id="g3528"
           transform="translate(361.5732,408.9893)">
          <path
             d="m 0,0 -7.325,-18.748 c 0.62,-0.834 1.105,-1.558 1.047,-2.869 -0.068,0.375 -0.113,0.654 -0.156,0.939 -0.213,0 -0.191,0 -0.381,0.006 -0.436,0.488 -0.559,1.116 -0.586,1.729 l -1.617,-4.141 c 0.457,-0.393 1.039,-0.851 1.755,-1.481 -2.852,-4.079 -1.958,-1.124 -2.22,-6.244 -1.455,-1.488 -2.849,-2.933 -4.257,-4.358 l -18.784,-48.076 c 1.526,2.463 3.385,4.728 5.882,6.831 0.062,-0.963 0.275,-1.986 -0.169,-2.87 -4.578,-10.338 -9.187,-20.85 -14.317,-30.887 -0.906,-0.074 -1.664,-0.384 -2.249,-0.848 l -1.301,-3.329 c 0.047,-0.35 0.134,-0.706 0.279,-1.059 -0.235,0.023 -0.463,0.026 -0.686,0.016 l -5.328,-13.637 4.189,0.751 c 0.52,1.009 0.61,2.239 0.014,3.294 4.533,-0.437 7.172,4.67 4.772,7.904 3.326,0.588 4.109,3.966 2.461,5.935 4.601,8.872 8.716,17.891 12.871,27.117 1.346,-10.149 6.18,-29.436 8.745,-39.084 l 67.206,12.028 z"
             style="fill:#d1df35;fill-opacity:1;fill-rule:nonzero;stroke:none"
             id="path3530" />
        </g>
        <g
           id="g3532"
           transform="translate(267.6089,476.0527)">
          <path
             d="m 0,0 0.086,-2.854 c 3.268,-1.659 6.486,-3.436 9.505,-5.52 l 1.6,1.715 C 4.74,-2.412 10.495,-5.376 0,0"
             style="fill:#e94d00;fill-opacity:1;fill-rule:nonzero;stroke:none"
             id="path3534" />
        </g>
        <g
           id="g3536"
           transform="translate(324.8311,119.6064)">
          <path
             d="m 0,0 59.813,29.907 4.558,67.504 z"
             style="fill:#60b66a;fill-opacity:1;fill-rule:nonzero;stroke:none"
             id="path3538" />
        </g>
        <g
           id="g3540"
           transform="translate(389.2021,217.0176)">
          <path
             d="m 0,0 -56.283,11.462 c 0,-0.008 -0.003,-0.016 -0.003,-0.023 -0.012,-2.607 -2.172,-2.842 -10.418,-8.984 -11.711,-8.705 -19.985,-23.642 -21.565,-36.475 -2.047,-18.724 9.653,-30.181 22.645,-42.583 -2.738,-0.917 -4.887,-2.655 -6.672,-4.618 l 7.925,-16.19 z"
             style="fill:#8ad074;fill-opacity:1;fill-rule:nonzero;stroke:none"
             id="path3542" />
        </g>
        <g
           id="g3544"
           transform="translate(273.48,238.6494)">
          <path
             d="m 0,0 c -1.628,-1.259 -3.326,-2.506 -5.094,-3.744 l 0.866,-1.77 c 1.902,1.319 3.756,2.657 5.559,4.015 2.3,-1.082 4.654,0.103 5.354,2.073 L -0.036,1.943 C -0.227,1.338 -0.237,0.673 0,0"
             style="fill:#8ad074;fill-opacity:1;fill-rule:nonzero;stroke:none"
             id="path3546" />
        </g>
        <g
           id="g3548"
           transform="translate(369.1182,503.3013)">
          <path
             d="M 0,0 C -0.033,-0.022 -0.073,-0.044 -0.105,-0.066 -0.156,0.269 -0.084,0.582 0.022,0.907 0.006,0.387 0.006,0.19 0,0 M -0.291,1.55 C -0.587,1.6 -4.381,2.07 -4.8,2.103 h -0.005 c -3.497,0.806 -4.28,0.381 -7.944,0.539 1.56,0.391 10.103,2.029 11.892,1.062 0.717,-0.392 0.762,-1.36 0.566,-2.154 m -0.15,-1.835 c -0.135,0.095 -0.27,0.196 -0.392,0.308 0.207,-0.067 0.413,-0.118 0.614,-0.157 -0.078,-0.056 -0.161,-0.112 -0.222,-0.151 m -10.653,0.112 c -0.385,0.302 -0.805,0.453 -1.23,0.509 2.696,-0.045 3.983,0.538 7.759,-1.013 -1.639,0.638 -2.037,0.772 -6.529,0.504 m -4.351,0.162 c 0.223,0.112 0.447,0.213 0.654,0.302 0.542,0.05 1.091,0.056 1.628,0.056 -0.773,-0.067 -1.533,-0.285 -2.282,-0.358 m -25.007,-9.638 c -0.238,0.005 -0.643,0.005 -0.923,0.011 0.791,0.979 1.668,1.935 2.828,2.31 -0.725,-0.856 -1.242,-1.6 -1.905,-2.321 M -52.25,-23.875 c -0.098,0.106 -0.269,0.29 -0.375,0.413 0.271,0.419 0.587,0.772 0.942,1.041 -0.212,-0.269 -0.366,-0.471 -0.55,-0.717 0.039,-0.246 0.039,-0.47 -0.017,-0.737 m -0.996,-1.539 c 0.096,0.235 0.193,0.464 0.294,0.676 0.219,0.241 0.439,0.476 0.663,0.706 -0.177,-0.588 -0.596,-1.063 -0.957,-1.382 m -4.842,-6.78 c 0.269,0.799 0.89,1.437 1.474,1.884 -0.464,-0.681 -0.99,-1.319 -1.474,-1.884 m 76.25,20.185 c -0.891,0.728 -1.519,1.08 -1.653,1.106 -0.392,0.263 -0.75,0.498 -1.069,0.778 0.084,1.846 -0.979,4.022 -2.931,4.509 -0.084,0.044 -0.398,0.224 -0.476,0.268 -0.206,0.727 -0.822,1.142 -1.308,1.65 l 0.005,0.017 -0.045,0.022 -0.073,0.073 -0.01,-0.039 c -0.425,0.19 -0.689,0.235 -0.974,0.297 0.498,-0.616 0.504,-1.242 -0.224,-1.013 L 9.08,-4.083 9.068,-3.994 c -0.872,0.739 -1.896,0.817 -2.853,1.236 1.159,0.274 2.237,-0.05 3.794,-0.172 -1.533,1.202 -2.866,0.827 -4.845,0.715 -0.951,0.201 -1.847,0.644 -2.764,1.012 -0.314,1.091 -1.158,1.981 -2.277,2.384 2.719,7.11 -14.634,0.934 -18.735,0.956 0.588,1.186 6.926,3.245 12.766,3.19 0.84,-0.006 1.712,-0.012 2.568,0.049 l -0.005,0.14 C -12.212,5.729 -13.174,4.8 -17.729,3.435 -18.668,2.988 -18.623,1.986 -21.722,1.466 -22.494,1.338 -23.294,1.203 -24.008,0.823 -25.233,0.655 -26.436,0.426 -27.654,0.24 c -0.303,-0.027 -0.575,-0.15 -0.837,-0.273 0.273,0.581 0.519,0.862 0.813,1.164 -5.155,-0.101 -7.454,-4.028 -7.502,-4.94 -0.38,-0.163 -0.69,-0.448 -1.015,-0.711 -0.182,0.017 -0.623,0.073 -0.917,0.101 -0.574,-0.464 -1.074,-0.951 -1.628,-1.611 0.04,-0.157 0.079,-0.291 0.123,-0.448 -0.246,-0.067 -0.482,-0.157 -0.71,-0.28 -1.106,-0.044 -1.712,0.084 -5.88,-4.654 -0.501,-0.571 -1.021,-1.158 -1.214,-1.924 -1.454,-1.791 -6.693,-9.32 -6.761,-9.443 -0.238,-0.184 -0.49,-0.382 -0.738,-0.588 0.079,0.65 0.053,0.453 0.109,0.867 -0.493,-0.441 -0.822,-0.806 -1.326,-2.047 l 0.03,-0.168 c -0.285,-0.47 -0.553,-0.929 -0.837,-1.388 -0.636,-0.553 -1.151,-1.331 -1.571,-2.371 -0.444,-0.448 -0.483,-1.074 -0.43,-1.533 -0.188,-0.28 -2.739,-5.024 -2.826,-6.703 l 0.135,-0.032 c 0.587,1.185 0.836,2.662 1.882,3.535 -0.011,-0.291 -0.027,-0.716 -0.041,-0.951 -1.463,-3.737 -3.012,-3.979 -3.042,-9.61 l 82.774,3.288 z"
             style="fill:#e66200;fill-opacity:1;fill-rule:nonzero;stroke:none"
             id="path3550" />
        </g>
        <g
           id="g3552"
           transform="translate(286.229,464.5337)">
          <path
             d="M 0,0 C 0.034,3.96 -3.356,4.727 -5.074,3.339 -6.003,3.931 -6.777,4.432 -7.429,4.86 l -1.6,-1.714 c 0.86,-0.595 1.707,-1.211 2.531,-1.859 -0.621,-2.294 0.836,-5.209 4.061,-4.51 -0.258,-0.916 -0.263,-1.849 -0.068,-2.713 l 9.065,0.36 C 7.404,-1.383 3.47,2.15 0,0"
             style="fill:#e66200;fill-opacity:1;fill-rule:nonzero;stroke:none"
             id="path3554" />
        </g>
        <g
           id="g3556"
           transform="translate(307.6016,443.1523)">
          <path
             d="M 0,0 C 0.998,-1.51 1.979,-3.155 3.526,-4.251 3.975,-5.13 3.922,-4.822 4.347,-6.322 2.338,-4.822 -0.006,-2.495 0,0 M 0.347,2.741 C 0.853,0.962 1.712,-0.704 2.483,-2.31 1.496,-1.521 0.897,-0.347 0.122,0.637 0.142,1.343 0.092,2.086 0.347,2.741 M 2.47,-6.03 c 1.104,-0.387 1.854,-1.405 2.791,-2.081 0.376,-0.265 0.663,-0.608 0.91,-0.986 L 53.972,-34.163 82.454,19.669 -0.32,16.381 C -0.323,16.026 -0.318,15.65 -0.309,15.25 -1.439,11.329 -0.772,8.984 -0.786,8.486 -0.529,7.765 -0.641,6.959 0.025,6.512 -0.025,5.807 -0.147,5.091 -0.235,4.386 -1.441,1.801 -1.08,2.125 -1.463,-0.498 c -3.041,3.995 -6.287,7.787 -9.65,11.268 0.811,2.309 -0.585,5.431 -3.737,4.849 0.014,0.063 0.024,0.125 0.037,0.187 l -9.065,-0.361 c 0.624,-2.776 3.327,-4.841 6.441,-3.34 -0.07,-2.186 1.809,-4.933 5.113,-3.093 4.3,-4.822 7.155,-7.863 11.717,-14.554 L 3.628,-7.763 C 3.257,-7.205 2.874,-6.632 2.47,-6.03"
             style="fill:#e99500;fill-opacity:1;fill-rule:nonzero;stroke:none"
             id="path3558" />
        </g>
        <g
           id="g3560"
           transform="translate(346.9268,251.1152)">
          <path
             d="m 0,0 c -0.744,-2.1 -1.694,-4.341 -2.89,-6.749 -0.799,-1.621 -1.06,-0.536 -2.817,-2.864 -1.222,-1.711 -3.217,-2.809 -4.14,-4.8 -0.724,-1.795 -3.816,-5.924 -4.161,-8.223 l 56.283,-11.462 z"
             style="fill:#b5e377;fill-opacity:1;fill-rule:nonzero;stroke:none"
             id="path3562" />
        </g>
        <g
           id="g3564"
           transform="translate(309.2734,278.4365)">
          <path
             d="m 0,0 c -6.229,-10.064 -9.48,-15.178 -19.017,-25.03 -3.152,1.275 -5.681,-1.141 -5.421,-3.849 -3.412,1.365 -8.284,-1.767 -6.731,-6.422 -1.931,0.549 -4.094,-0.735 -4.661,-2.543 l 6.722,-1.369 c 0.196,0.556 0.262,1.173 0.158,1.82 3.598,-1.549 8.404,1.662 6.982,6.187 2.574,-0.486 5.176,2.137 4.218,4.677 12.588,12.956 16.685,21.068 20.483,26.813 0.23,-0.019 0.455,-0.012 0.674,0.017 l -1.52,1.225 z"
             style="fill:#b5e377;fill-opacity:1;fill-rule:nonzero;stroke:none"
             id="path3566" />
        </g>
        <g
           id="g3568"
           transform="translate(322.5908,93.5947)">
          <path
             d="M 0,0 C 16.291,-8.498 13.39,-4.566 32.792,-10.981 L 2.24,26.012 Z"
             style="fill:#3a8a5c;fill-opacity:1;fill-rule:nonzero;stroke:none"
             id="path3570" />
        </g>
        <g
           id="g3572"
           transform="translate(328.5049,393.0801)">
          <path
             d="m 0,0 c -13.23,18.419 -33.871,46.337 -59.938,61.395 l 10.124,-85.361 z"
             style="fill:#f2b400;fill-opacity:1;fill-rule:nonzero;stroke:none"
             id="path3574" />
        </g>
        <g
           id="g3576"
           transform="translate(332.1543,413.4917)">
          <path
             d="M 0,0 C 0.562,-0.425 1.317,-0.615 1.776,-1.13 2.027,-2.008 2.213,-2.898 2.425,-3.798 2.271,-4.128 1.997,-4.699 1.814,-4.945 0.543,-3.681 -0.54,-2.103 -1.692,0.151 -1.763,0.571 -1.894,0.985 -2.087,1.42 -1.281,1.163 -0.741,0.409 0,0 m -7.726,0.392 c 0.409,1.063 0.411,2.226 0.006,3.211 1.591,-0.235 2.857,-1.298 4.338,-1.869 0.073,-0.291 0.02,-0.089 0.096,-0.38 v 0.005 c 0.659,-2.567 2.894,-6.461 4.435,-7.099 H 1.146 c 1.151,-0.503 2.048,-1.046 3.13,-1.376 L 4.21,-7.2 4.392,-7.161 4.42,-7.166 4.436,-7.15 c 0.965,0.235 1.77,0.94 2.275,1.998 0.584,-0.532 1.211,-1.113 1.834,-1.723 0.293,-0.33 0.571,-0.688 0.84,-1.03 -0.605,0.04 -1.242,0.056 -1.838,0.207 -0.459,0.397 -0.747,0.957 -1.058,1.46 L 6.358,-6.282 C 6.429,-6.932 6.476,-7.323 6.506,-7.603 7.194,-8 7.608,-8.565 8.092,-9.241 c 0.941,-1.325 2.036,-2.552 3.555,-3.812 l 0.439,0.211 c -0.035,0.029 -0.068,0.057 -0.103,0.087 0.101,0.008 0.201,0.009 0.301,0.009 l 1.234,0.593 c -0.728,0.002 -1.461,0.141 -2.201,-0.009 -1.544,1.376 -2.73,2.73 -3.617,4.128 1.622,-0.156 2.962,-0.654 3.986,-1.476 0.283,-0.28 1.388,-1.169 1.992,-1.36 l 0.019,-0.016 0.165,0.045 c 0.172,-0.169 0.347,-0.336 0.532,-0.516 -0.322,-0.178 -0.498,-0.285 -0.733,-0.43 0.114,-0.086 0.174,-0.13 0.241,-0.181 l 15.517,7.466 -47.801,25.066 c 0.337,-0.516 0.596,-1.097 0.88,-1.65 -0.26,-0.279 -0.427,-0.481 -0.663,-0.75 -0.062,-0.033 -0.155,-0.089 -0.232,-0.128 -0.806,1.259 -1.627,2.509 -2.528,3.861 l -4.234,2.221 c 1.445,-2.119 3.059,-4.601 4.947,-7.626 -1.269,-2.965 0.187,-5.315 2.534,-5.55 -2.098,-3.648 -0.003,-8.375 4.128,-7.899 -1.025,-2.954 1.397,-5.639 3.894,-4.61 3.22,-5.661 6.286,-11.448 9.315,-17.253 l 2.471,1.189 c -3.188,5.985 -6.471,12.02 -9.856,18.023"
             style="fill:#f2b400;fill-opacity:1;fill-rule:nonzero;stroke:none"
             id="path3578" />
        </g>
        <g
           id="g3580"
           transform="translate(309.7471,283.8418)">
          <path
             d="M 0,0 C -0.573,-0.841 -0.789,-1.969 -0.25,-3.352 L 1.413,-3.879 Z"
             style="fill:#f0f03e;fill-opacity:1;fill-rule:nonzero;stroke:none"
             id="path3582" />
        </g>
        <g
           id="g3584"
           transform="translate(235.6816,303.8887)">
          <path
             d="m 0,0 69.108,-21.906 c 1.418,1.601 2.722,3.165 3.926,4.691 L 43.009,65.226 Z"
             style="fill:#f0f03e;fill-opacity:1;fill-rule:nonzero;stroke:none"
             id="path3586" />
        </g>
        <g
           id="g3588"
           transform="translate(316.9063,135.7969)">
          <path
             d="m 0,0 c -3.008,-3.306 -4.984,-7.254 -7.006,-9.017 -4.918,-0.422 -10.213,-1.366 -14.692,-2.363 l 29.623,-4.811 z"
             style="fill:#99d575;fill-opacity:1;fill-rule:nonzero;stroke:none"
             id="path3590" />
        </g>
        <g
           id="g3592"
           transform="translate(248.8843,220.4727)">
          <path
             d="M 0,0 -1.898,-2.622 C -0.931,-2.069 -0.189,-1.152 0,0"
             style="fill:#99d575;fill-opacity:1;fill-rule:nonzero;stroke:none"
             id="path3594" />
        </g>
        <g
           id="g3596"
           transform="translate(252.0122,224.7949)">
          <path
             d="M 0,0 -2.775,-3.834 C 4.336,-0.037 11.042,4.042 17.24,8.341 L 16.374,10.11 C 11.507,6.702 6.091,3.357 0,0"
             style="fill:#99d575;fill-opacity:1;fill-rule:nonzero;stroke:none"
             id="path3598" />
        </g>
        <g
           id="g3600"
           transform="translate(193.7417,140.8955)">
          <path
             d="m 0,0 c 2.927,1.701 5.282,3.581 6.851,5.511 6.301,7.378 7.205,9.174 9.292,17.604 0.276,0.981 0.314,1.988 0.293,2.996 L 9.693,16.797 C 8.076,13.585 5.852,10.59 3.343,8.025 L -2.208,0.358 Z"
             style="fill:#99d575;fill-opacity:1;fill-rule:nonzero;stroke:none"
             id="path3602" />
        </g>
        <g
           id="g3604"
           transform="translate(305.0439,102.793)">
          <path
             d="m 0,0 c 1.619,-1.235 3.557,-2.383 5.679,-2.73 4.87,-2.729 8.725,-4.829 11.868,-6.468 l 2.24,26.011 z"
             style="fill:#518d5d;fill-opacity:1;fill-rule:nonzero;stroke:none"
             id="path3606" />
        </g>
        <g
           id="g3608"
           transform="translate(292.5503,118.2158)">
          <path
             d="m 0,0 c -1.083,0.313 -2.179,0.023 -3.25,0.068 0.305,0.1 6.159,1.577 6.689,1.677 C 2.179,1.366 1.01,0.772 0,0 M 2.658,6.201 C -1.926,5.183 -5.653,4.108 -7.236,3.48 -8.832,2.999 -8.674,0.816 -7.804,-0.324 c 0.615,-0.531 2.171,-0.079 2.806,0.022 -1.441,-1.052 -2.02,-2.103 -1.292,-3.715 2.548,-5.649 5.893,-4.912 14.275,-7.675 0.679,-0.197 2.297,-2.044 4.509,-3.731 L 32.281,1.391 Z"
             style="fill:#79af65;fill-opacity:1;fill-rule:nonzero;stroke:none"
             id="path3610" />
        </g>
        <g
           id="g3612"
           transform="translate(191.7466,139.8096)">
          <path
             d="M 0,0 C 0.69,0.352 1.357,0.715 1.995,1.086 L -0.213,1.444 Z"
             style="fill:#79af65;fill-opacity:1;fill-rule:nonzero;stroke:none"
             id="path3614" />
        </g>
        <g
           id="g3616"
           transform="translate(248.1099,222.6885)">
          <path
             d="m 0,0 c -2.102,2.182 -6.389,0.801 -6.711,-2.266 -3.689,2.227 -9.135,-0.279 -8.637,-4.598 -2.419,1.153 -5.932,0.011 -5.857,-3.088 -3.088,-1.312 -9.663,-3.721 -15.251,-6.553 l -8.177,-5.572 c -1.681,-1.959 -1.859,-3.919 0.603,-5.709 4,0.375 8.238,5.487 11.328,8.246 3.793,3.356 8.52,5.448 12.976,7.558 1.903,-0.997 5.413,-0.924 6.09,2.629 3.527,-2.568 9.238,-0.185 8.785,4.251 1.208,-0.524 2.616,-0.371 3.727,0.264 l 1.898,2.622 c 0.017,0.106 0.032,0.211 0.039,0.32 0.106,0.056 0.209,0.113 0.314,0.168 L 3.902,2.106 C 2.631,1.405 1.332,0.703 0,0"
             style="fill:#c5eb6b;fill-opacity:1;fill-rule:nonzero;stroke:none"
             id="path3618" />
        </g>
        <g
           id="g3620"
           transform="translate(197.0845,148.9209)">
          <path
             d="m 0,0 c -1.914,-1.956 -3.99,-3.659 -6.087,-5.018 l 0.536,-2.649 z"
             style="fill:#c5eb6b;fill-opacity:1;fill-rule:nonzero;stroke:none"
             id="path3622" />
        </g>
        <g
           id="g3624"
           transform="translate(191.7563,166.002)">
          <path
             d="M 0,0 C -0.124,0.984 -1.001,1.483 -1.704,2.092 -3.053,1.979 -4.28,1.543 -5.419,0.91 l 1.967,-9.715 C -0.463,-5.953 1.12,-2.654 0,0"
             style="fill:#c5eb6b;fill-opacity:1;fill-rule:nonzero;stroke:none"
             id="path3626" />
        </g>
        <g
           id="g3628"
           transform="translate(210.1055,169.6279)">
          <path
             d="m 0,0 c 0.134,3.468 -3.248,10.617 -5.603,12.52 -5.421,4.642 -1.714,2.165 -6.937,4.934 -3.202,1.454 -0.19,0.649 -7.09,1.891 -0.648,0.137 -2.748,-0.091 -4.671,-0.408 l -3.385,-2.308 0.359,-1.774 c 1.119,0.386 2.311,0.7 3.554,0.897 4.045,0.639 1.774,0.492 6.153,-0.055 1.861,-0.235 1.654,-0.307 3.886,-1.371 2.065,-0.978 2.059,-0.924 3.597,-2.354 7.724,-7.198 7.36,-16.175 3.466,-23.908 l 6.743,9.315 C 0.054,-1.742 -0.01,-0.862 0,0"
             style="fill:#c5eb6b;fill-opacity:1;fill-rule:nonzero;stroke:none"
             id="path3630" />
        </g>
        <g
           id="g3632"
           transform="translate(278.6909,369.1143)">
          <path
             d="m 0,0 -10.124,85.36 c -0.565,0.327 -1.133,0.647 -1.703,0.961 l -35.17,-69.517 z"
             style="fill:#fdbb00;fill-opacity:1;fill-rule:nonzero;stroke:none"
             id="path3634" />
        </g>
        <g
           id="g3636"
           transform="translate(309.4971,280.4902)">
          <path
             d="M 0,0 C 0.118,-0.302 0.271,-0.615 0.465,-0.941 0.231,-1.32 0.003,-1.689 -0.224,-2.054 l 1.887,1.527 z"
             style="fill:#dff35f;fill-opacity:1;fill-rule:nonzero;stroke:none"
             id="path3638" />
        </g>
        <g
           id="g3640"
           transform="translate(261.1411,249.9746)">
          <path
             d="m 0,0 c 11.053,5.291 21.8,11.534 29.894,18.537 5.516,4.772 10.025,9.254 13.755,13.471 l -69.108,21.906 z"
             style="fill:#dff35f;fill-opacity:1;fill-rule:nonzero;stroke:none"
             id="path3642" />
        </g>
        <g
           id="g3644"
           transform="translate(230.603,471.5366)">
          <path
             d="m 0,0 c -0.567,0.221 -1.098,0.425 -1.584,0.61 -3.548,1.358 -7.073,2.638 -10.554,3.869 l 3.83,-31.423 z"
             style="fill:#f94d00;fill-opacity:1;fill-rule:nonzero;stroke:none"
             id="path3646" />
        </g>
        <g
           id="g3648"
           transform="translate(235.2759,500.0181)">
          <path
             d="m 0,0 c -0.715,1.103 -1.163,2.366 -1.773,3.535 -0.719,1.259 -0.649,2.792 -0.788,4.19 1.023,4.834 3.888,5.774 5.355,9.768 2.311,5.46 -1.538,7.406 -5.23,6.277 -1.049,-0.167 -1.872,-0.879 -2.735,-1.405 -0.84,-0.503 -1.281,-1.42 -1.891,-2.12 -0.836,-0.922 -1.057,-2.182 -1.508,-3.278 -0.576,-1.32 -0.408,-2.786 -0.543,-4.162 -0.71,-6.076 5.833,-14.41 6.708,-15.692 1.15,-1.771 2.686,-3.235 4.155,-4.762 l 1.131,3.667 C 1.864,-2.684 0.951,-1.3 0,0"
             style="fill:#f94d00;fill-opacity:1;fill-rule:nonzero;stroke:none"
             id="path3650" />
        </g>
        <g
           id="g3652"
           transform="translate(264.3052,456.856)">
          <path
             d="M 0,0 C -8.828,4.721 -25.389,11.457 -33.702,14.681 L -42.01,-12.264 Z"
             style="fill:#fe6800;fill-opacity:1;fill-rule:nonzero;stroke:none"
             id="path3654" />
        </g>
        <g
           id="g3656"
           transform="translate(257.5776,481.2046)">
          <path
             d="m 0,0 c -0.422,2.691 -2.234,4.056 -4.752,3.328 0.783,4.425 -4.03,7.938 -7.672,5.309 -0.136,2.876 -2.451,4.531 -4.75,3.743 -0.829,0.741 -1.561,1.577 -2.247,2.452 l -1.131,-3.667 c 0.263,-0.273 0.524,-0.548 0.78,-0.827 0.534,-0.425 0.081,-1.181 0.179,-1.801 0.226,-1.948 1.863,-4.19 5.043,-3.178 -0.918,-4.168 3.49,-8.168 7.489,-5.639 0.132,-2.769 3.031,-5.146 6.236,-2.338 3.567,-1.823 7.285,-3.533 10.942,-5.388 l -0.086,2.854 C 7.643,-3.928 4.41,-2.272 0,0"
             style="fill:#fe6800;fill-opacity:1;fill-rule:nonzero;stroke:none"
             id="path3658" />
        </g>
        <g
           id="g3660"
           transform="translate(231.6938,385.918)">
          <path
             d="m 0,0 35.17,69.517 c -0.216,0.119 -0.431,0.242 -0.648,0.36 -0.584,0.34 -1.226,0.695 -1.911,1.061 L -9.399,58.674 Z"
             style="fill:#ffa500;fill-opacity:1;fill-rule:nonzero;stroke:none"
             id="path3662" />
        </g>
        <g
           id="g3664"
           transform="translate(235.6816,303.8887)">
          <path
             d="M 0,0 43.009,65.226 -3.988,82.029 Z"
             style="fill:#fce626;fill-opacity:1;fill-rule:nonzero;stroke:none"
             id="path3666" />
        </g>
        <g
           id="g3668"
           transform="translate(218.4653,476.0151)">
          <path
             d="m 0,0 c -30.656,10.827 -57.937,17.634 -68.409,36.823 l -2.252,-3.277 c 10.802,-17.407 36.799,-31.58 37.759,-50.908 0.052,-1.032 0.182,-1.682 0.247,-2.22 L 3.83,-31.423 Z"
             style="fill:#ff6500;fill-opacity:1;fill-rule:nonzero;stroke:none"
             id="path3670" />
        </g>
        <g
           id="g3672"
           transform="translate(159.9355,526.6069)">
          <path
             d="M 0,0 C 2.064,0.829 4.56,0.829 6.35,2.35 7.728,3.57 6.796,6.124 4.741,7.507 L -0.681,-0.384 C -0.469,-0.224 -0.242,-0.093 0,0"
             style="fill:#ff6500;fill-opacity:1;fill-rule:nonzero;stroke:none"
             id="path3674" />
        </g>
        <g
           id="g3676"
           transform="translate(178.4448,523.2173)">
          <path
             d="m 0,0 c -0.232,-0.414 -2.04,-4.442 -5.463,-5.667 -3.967,-2.019 -10.288,-2.467 -13.628,0.984 -1.729,1.739 -2.004,4.049 -1.41,5.781 l -3.464,-5.039 c 2.4,-5.497 8.842,-9.36 19.434,-5.211 2.254,0.884 1.915,0.973 3.566,2.17 2.053,1.499 1.677,1.522 2.933,3.346 6.675,9.73 0.514,20.25 -8.65,24.844 L -8.334,18.804 C -1.942,15.748 2.559,8.679 0,0"
             style="fill:#ff6500;fill-opacity:1;fill-rule:nonzero;stroke:none"
             id="path3678" />
        </g>
        <g
           id="g3680"
           transform="translate(218.7222,298.3281)">
          <path
             d="m 0,0 c -8.441,-12.151 -21.662,-23.58 -34.198,-33.464 l 67.632,-18.97 c 2.987,1.288 5.998,2.65 8.985,4.08 L 16.959,5.561 Z"
             style="fill:#f2f84c;fill-opacity:1;fill-rule:nonzero;stroke:none"
             id="path3682" />
        </g>
        <g
           id="g3684"
           transform="translate(203.4771,200.6113)">
          <path
             d="M 0,0 8.177,5.572 C 4.722,3.822 1.643,1.912 0,0"
             style="fill:#e7f563;fill-opacity:1;fill-rule:nonzero;stroke:none"
             id="path3686" />
        </g>
        <g
           id="g3688"
           transform="translate(185.8047,188.5645)">
          <path
             d="M 0,0 C -1.538,-0.255 -2.964,-0.566 -3.442,-0.795 -3.6,-0.861 -3.751,-0.925 -3.898,-0.986 l 0.513,-1.322 z"
             style="fill:#e7f563;fill-opacity:1;fill-rule:nonzero;stroke:none"
             id="path3690" />
        </g>
        <g
           id="g3692"
           transform="translate(159.5015,245.3496)">
          <path
             d="m 0,0 9.767,-25.184 c 0.957,0.341 1.941,0.681 2.955,1.018 11.858,3.793 24.29,6.327 36.198,9.068 0.299,0.084 0.458,0.212 0.648,0.409 -0.161,0.078 -0.315,0.157 -0.474,0.229 1.037,0.059 21.655,5.56 43.561,15.005 L 25.022,19.515 C 15.48,11.992 6.336,5.365 0,0"
             style="fill:#e7f563;fill-opacity:1;fill-rule:nonzero;stroke:none"
             id="path3694" />
        </g>
        <g
           id="g3696"
           transform="translate(146.708,521.561)">
          <path
             d="m 0,0 c -0.806,3.212 0.904,9.108 0.963,9.393 4.054,12.555 14.651,14.792 22.44,11.068 l 1.652,2.403 C 15.148,27.832 1.73,25.872 -2.772,8.492 -4.718,0.978 -2.799,-5.721 1.097,-11.999 l 2.252,3.276 C 1.899,-6.067 0.771,-3.174 0,0"
             style="fill:#ff5a00;fill-opacity:1;fill-rule:nonzero;stroke:none"
             id="path3698" />
        </g>
        <g
           id="g3700"
           transform="translate(159.2544,526.2231)">
          <path
             d="M 0,0 5.422,7.891 C 3.248,9.356 -0.187,9.51 -3.475,5.385 -6.108,2.111 -6.554,-2.868 -4.774,-6.947 l 3.463,5.039 C -1.038,-1.113 -0.583,-0.441 0,0"
             style="fill:#ff5a00;fill-opacity:1;fill-rule:nonzero;stroke:none"
             id="path3702" />
        </g>
        <g
           id="g3704"
           transform="translate(189.6587,138.8076)">
          <path
             d="M 0,0 C 0.719,0.324 1.415,0.658 2.088,1.002 L 1.875,2.446 Z"
             style="fill:#a2ba4c;fill-opacity:1;fill-rule:nonzero;stroke:none"
             id="path3706" />
        </g>
        <g
           id="g3708"
           transform="translate(174.8364,335.3291)">
          <path
             d="m 0,0 c -1.645,-4.789 0.64,-11.06 5.605,-10.976 2.056,-0.034 4.163,0.419 5.561,1.923 -0.254,2.732 -3.362,3.508 -6.1,5.137 -1.883,1.062 -2.342,4.458 1.705,6.97 4.594,2.831 9.567,0.907 12.159,-2.649 L 20.709,2.76 C 14.728,9.318 2.677,7.685 0,0"
             style="fill:#ffe100;fill-opacity:1;fill-rule:nonzero;stroke:none"
             id="path3710" />
        </g>
        <g
           id="g3712"
           transform="translate(129.915,402.2251)">
          <path
             d="M 0,0 C 0.555,0.498 0.91,1.1 1.114,1.768 L -8.894,3.565 C -7.53,-0.331 -4.082,-2.373 0,0"
             style="fill:#ffe100;fill-opacity:1;fill-rule:nonzero;stroke:none"
             id="path3714" />
        </g>
        <g
           id="g3716"
           transform="translate(208.6216,390.0605)">
          <path
             d="m 0,0 c -10.458,-12.902 -41.682,-22.532 -49.362,-38.944 -4.35,-7.664 -5.208,-18.036 0.668,-24.492 6.408,-6.3 13.709,-8.855 20.216,-8.914 l 1.616,2.139 c -6.103,-0.48 -11.354,1.728 -12.87,4.122 -5.642,8.079 -3.894,12.146 0.252,18.417 5.658,7.351 10.296,9.399 14.388,10.187 8.437,1.31 15.876,0.68 22.032,-1.235 l 26.132,34.578 z"
             style="fill:#ffe100;fill-opacity:1;fill-rule:nonzero;stroke:none"
             id="path3718" />
        </g>
        <g
           id="g3720"
           transform="translate(231.6938,385.918)">
          <path
             d="m 0,0 -26.132,-34.577 c 7.071,-2.198 12.447,-6.095 15.684,-10.703 0.834,-1.141 1.863,-2.177 2.455,-3.462 0.818,-1.736 1.909,-3.38 2.345,-5.277 3.917,-11.372 0.19,-22.756 -7.324,-33.571 l 16.96,5.561 z"
             style="fill:#fff31b;fill-opacity:1;fill-rule:nonzero;stroke:none"
             id="path3722" />
        </g>
        <g
           id="g3724"
           transform="translate(196.2285,337.2754)">
          <path
             d="m 0,0 c -0.217,0.285 -0.447,0.554 -0.683,0.814 l -1.779,-2.355 c 3.01,-4.13 2.802,-10.46 -4.964,-14.095 -2.367,-1.059 -4.764,-1.611 -7.043,-1.79 l -1.616,-2.138 C -3.118,-19.683 6.696,-9.886 0,0"
             style="fill:#fff31b;fill-opacity:1;fill-rule:nonzero;stroke:none"
             id="path3726" />
        </g>
        <g
           id="g3728"
           transform="translate(121.021,405.79)">
          <path
             d="M 0,0 10.008,-1.797 C 10.637,0.268 9.798,2.958 8.78,5.122 L -0.452,1.761 C -0.346,1.141 -0.193,0.553 0,0"
             style="fill:#ffb500;fill-opacity:1;fill-rule:nonzero;stroke:none"
             id="path3730" />
        </g>
        <g
           id="g3732"
           transform="translate(222.2949,444.5923)">
          <path
             d="m 0,0 -39.381,-14.339 c 12.756,-3.618 23.193,-10.615 27.905,-23.967 1.731,-7.194 1.351,-7.843 0.397,-11.955 -0.589,-1.47 -1.474,-2.888 -2.594,-4.271 l 23.072,-4.142 z"
             style="fill:#ffb500;fill-opacity:1;fill-rule:nonzero;stroke:none"
             id="path3734" />
        </g>
        <g
           id="g3736"
           transform="translate(185.8105,456.4336)">
          <path
             d="M 0,0 C 0.058,-0.478 0.062,-0.867 -0.091,-1.354 -3.788,-15.105 -9.1,-18.26 -20.113,-22.042 c -7.157,-1.365 -6.979,-0.648 -14.332,-1.969 -0.513,0.62 -0.895,1.432 -1.692,1.779 -2.154,1.208 -5.046,-0.112 -5.737,-2.406 -3.55,4 -10.327,0.974 -9.899,-4.252 -0.465,-0.43 -1.063,-0.738 -1.642,-1.039 -9.9,-5.116 -12.788,-13.288 -11.826,-18.953 l 9.231,3.361 c -0.082,0.173 -0.163,0.343 -0.247,0.509 -1.941,3.883 -1.966,5.36 0.968,9.03 1.519,1.425 3.132,2.964 5.074,3.993 3.208,-2.841 8.749,-0.956 9.382,3.525 3.826,-2.003 6.187,0.57 6.486,2.563 4.251,1.062 8.612,1.89 12.88,2.841 6.457,-0.526 12.755,-1.472 18.571,-3.121 l 39.38,14.34 z"
             style="fill:#ff9b00;fill-opacity:1;fill-rule:nonzero;stroke:none"
             id="path3738" />
        </g>
        <g
           id="g3740"
           transform="translate(158.2021,244.2324)">
          <path
             d="m 0,0 -0.521,0.067 c -5.612,-4.902 -10.402,-9.463 -14.486,-13.71 l -3.119,-29.179 c 5.052,6.703 13.134,13.024 29.192,18.756 L 1.299,1.117 C 0.853,0.738 0.418,0.365 0,0"
             style="fill:#e9f345;fill-opacity:1;fill-rule:nonzero;stroke:none"
             id="path3742" />
        </g>
        <g
           id="g3744"
           transform="translate(181.9067,187.5781)">
          <path
             d="M 0,0 C -0.934,-0.39 -1.664,-0.69 -2.241,-0.924 L 0.513,-1.321 Z"
             style="fill:#e9f345;fill-opacity:1;fill-rule:nonzero;stroke:none"
             id="path3746" />
        </g>
        <g
           id="g3748"
           transform="translate(189.6587,138.8076)">
          <path
             d="M 0,0 1.875,2.446 -8.563,0.816 c -5.448,-1.712 -11.51,-2.741 -17.513,-2.733 L -37.681,-3.73 C -24.683,-7.02 -10.172,-4.58 0,0"
             style="fill:#b7cf41;fill-opacity:1;fill-rule:nonzero;stroke:none"
             id="path3750" />
        </g>
        <g
           id="g3752"
           transform="translate(188.3047,157.1973)">
          <path
             d="m 0,0 -1.968,9.715 c -4.498,-2.5 -7.594,-8.132 -11.099,-9.716 l 5.092,-4.982 C -4.919,-3.801 -2.109,-2.013 0,0"
             style="fill:#caea4e;fill-opacity:1;fill-rule:nonzero;stroke:none"
             id="path3754" />
        </g>
        <g
           id="g3756"
           transform="translate(179.666,186.6543)">
          <path
             d="m 0,0 c -3.534,-1.432 -1.287,-0.385 -4.892,-2.61 -1.426,-0.985 -3.045,-1.808 -4.22,-3.145 -1.427,-1.538 -3.267,-2.819 -4.244,-4.76 -0.864,-1.561 -2.088,-3.005 -2.542,-4.79 -0.204,-0.739 -0.48,-1.475 -0.728,-2.22 l 3.811,-3.729 c 0.115,4.85 2.865,10.925 9.918,15.997 1.507,1.079 3.588,2.251 6.009,3.086 l -0.359,1.774 z"
             style="fill:#caea4e;fill-opacity:1;fill-rule:nonzero;stroke:none"
             id="path3758" />
        </g>
        <g
           id="g3760"
           transform="translate(190.9971,143.9033)">
          <path
             d="M 0,0 C -0.445,-0.288 -0.891,-0.562 -1.337,-0.817 L 0.537,-2.649 Z"
             style="fill:#caea4e;fill-opacity:1;fill-rule:nonzero;stroke:none"
             id="path3762" />
        </g>
        <g
           id="g3764"
           transform="translate(151.978,135.0781)">
          <path
             d="m 0,0 11.604,1.812 c -13.777,0.017 -27.242,5.494 -32.23,20.709 -0.148,0.455 -0.287,0.912 -0.421,1.371 L -22.9,16.305 C -17.298,7.316 -9.013,2.281 0,0"
             style="fill:#c8e242;fill-opacity:1;fill-rule:nonzero;stroke:none"
             id="path3766" />
        </g>
        <g
           id="g3768"
           transform="translate(189.6602,143.0859)">
          <path
             d="m 0,0 c -1.503,-0.862 -3,-1.538 -4.439,-1.989 -1.325,-0.534 -2.705,-1.027 -4.126,-1.473 l 10.438,1.63 z"
             style="fill:#c8e242;fill-opacity:1;fill-rule:nonzero;stroke:none"
             id="path3770" />
        </g>
        <g
           id="g3772"
           transform="translate(162.4424,166.2539)">
          <path
             d="m 0,0 c -0.017,-0.286 -0.755,-5.812 0.553,-8.699 0.46,-1.007 0.638,-2.199 1.424,-3.054 0.635,-0.693 1.139,-1.538 1.908,-2.143 4.172,-2.338 9.369,-1.939 14.003,-0.144 l -5.093,4.982 C 12.199,-9.327 11.593,-9.482 10.964,-9.482 7.137,-9.773 4.286,-6.006 4.408,-0.854 L 0.598,2.875 C 0.288,1.94 0.021,0.992 0,0"
             style="fill:#c8e242;fill-opacity:1;fill-rule:nonzero;stroke:none"
             id="path3774" />
        </g>
        <g
           id="g3776"
           transform="translate(120.7285,193.1621)">
          <path
             d="m 0,0 14.166,-0.493 c 0.508,1.055 1.038,2.103 1.607,3.145 L 5.514,15.517 C 2.094,9.369 0.56,4.264 0,0"
             style="fill:#fae01e;fill-opacity:1;fill-rule:nonzero;stroke:none"
             id="path3778" />
        </g>
        <g
           id="g3780"
           transform="translate(126.2422,208.6787)">
          <path
             d="m 0,0 10.259,-12.864 c 1.031,1.89 2.189,3.758 3.575,5.596 l 3.119,29.179 C 8.78,13.414 3.438,6.18 0,0"
             style="fill:#ffee20;fill-opacity:1;fill-rule:nonzero;stroke:none"
             id="path3782" />
        </g>
        <g
           id="g3784"
           transform="translate(121.8701,177.5039)">
          <path
             d="m 0,0 c 0.511,-11.071 3.16,-19.628 7.207,-26.121 l 1.854,7.587 c -2.5,8.602 -2.354,17.967 -0.676,23.692 1.682,3.385 3.059,6.729 4.639,10.007 L -1.142,15.658 C -2.108,8.281 -0.158,3.414 0,0"
             style="fill:#dddf2f;fill-opacity:1;fill-rule:nonzero;stroke:none"
             id="path3786" />
        </g>
      </g>
    </g>
  </g>
</svg>
